HIERARCHY
ROOT Hips
{
	OFFSET 0.000000 0.000000 0.000000
	CHANNELS 6 Xposition Yposition Zposition Zrotation Yrotation Xrotation 
	JOINT LHipJoint
	{
		OFFSET 0.000000 0.000000 0.000000
		CHANNELS 3 Zrotation Yrotation Xrotation
		JOINT LeftUpLeg
		{
			OFFSET 1.363060 -1.794630 0.839290
			CHANNELS 3 Zrotation Yrotation Xrotation
			JOINT LeftLeg
			{
				OFFSET 2.448110 -6.726130 0.000000
				CHANNELS 3 Zrotation Yrotation Xrotation
				JOINT LeftFoot
				{
					OFFSET 2.562200 -7.039590 0.000000
					CHANNELS 3 Zrotation Yrotation Xrotation
					JOINT LeftToeBase
					{
						OFFSET 0.157640 -0.433110 2.322550
						CHANNELS 3 Zrotation Yrotation Xrotation
						End Site
						{
							OFFSET 0.000000 0.000000 0.000000
						}
					}
				}
			}
		}
	}
	JOINT RHipJoint
	{
		OFFSET 0.000000 0.000000 0.000000
		CHANNELS 3 Zrotation Yrotation Xrotation
		JOINT RightUpLeg
		{
			OFFSET -1.305520 -1.794630 0.839290
			CHANNELS 3 Zrotation Yrotation Xrotation
			JOINT RightLeg
			{
				OFFSET -2.542530 -6.985550 0.000000
				CHANNELS 3 Zrotation Yrotation Xrotation
				JOINT RightFoot
				{
					OFFSET -2.568260 -7.056230 0.000000
					CHANNELS 3 Zrotation Yrotation Xrotation
					JOINT RightToeBase
					{
						OFFSET -0.164730 -0.452590 2.363150
						CHANNELS 3 Zrotation Yrotation Xrotation
						End Site
						{
							OFFSET 0.000000 0.000000 0.000000
						}
					}
				}
			}
		}
	}
	JOINT LowerBack
	{
		OFFSET 0.000000 0.000000 0.000000
		CHANNELS 3 Zrotation Yrotation Xrotation
		JOINT Spine
		{
			OFFSET 0.028270 2.035590 -0.193380
			CHANNELS 3 Zrotation Yrotation Xrotation
			JOINT Spine1
			{
				OFFSET 0.056720 2.048850 -0.042750
				CHANNELS 3 Zrotation Yrotation Xrotation
				JOINT Neck
				{
					OFFSET 0.000000 0.000000 0.000000
					CHANNELS 3 Zrotation Yrotation Xrotation
					JOINT Neck1
					{
						OFFSET -0.054170 1.746240 0.172020
						CHANNELS 3 Zrotation Yrotation Xrotation
						JOINT Head
						{
							OFFSET 0.104070 1.761360 -0.123970
							CHANNELS 3 Zrotation Yrotation Xrotation
							End Site
							{
								OFFSET 0.000000 0.000000 0.000000
							}
						}
					}
				}
				JOINT LeftShoulder
				{
					OFFSET 0.000000 0.000000 0.000000
					CHANNELS 3 Zrotation Yrotation Xrotation
					JOINT LeftArm
					{
						OFFSET 3.362410 1.200890 -0.311210
						CHANNELS 3 Zrotation Yrotation Xrotation
						JOINT LeftForeArm
						{
							OFFSET 4.983000 -0.000000 -0.000000
							CHANNELS 3 Zrotation Yrotation Xrotation
							JOINT LeftHand
							{
								OFFSET 3.483560 -0.000000 -0.000000
								CHANNELS 3 Zrotation Yrotation Xrotation
								JOINT LeftFingerBase
								{
									OFFSET 0.000000 0.000000 0.000000
									CHANNELS 3 Zrotation Yrotation Xrotation
									JOINT LeftHandIndex1
									{
										OFFSET 0.715260 -0.000000 -0.000000
										CHANNELS 3 Zrotation Yrotation Xrotation
										End Site
										{
											OFFSET 0.000000 0.000000 0.000000
										}
									}
								}
								JOINT LThumb
								{
									OFFSET 0.000000 0.000000 0.000000
									CHANNELS 3 Zrotation Yrotation Xrotation
									End Site
									{
										OFFSET 0.000000 0.000000 0.000000
									}
								}
							}
						}
					}
				}
				JOINT RightShoulder
				{
					OFFSET 0.000000 0.000000 0.000000
					CHANNELS 3 Zrotation Yrotation Xrotation
					JOINT RightArm
					{
						OFFSET -3.136600 1.374050 -0.404650
						CHANNELS 3 Zrotation Yrotation Xrotation
						JOINT RightForeArm
						{
							OFFSET -5.241900 -0.000000 -0.000000
							CHANNELS 3 Zrotation Yrotation Xrotation
							JOINT RightHand
							{
								OFFSET -3.444170 -0.000000 -0.000000
								CHANNELS 3 Zrotation Yrotation Xrotation
								JOINT RightFingerBase
								{
									OFFSET 0.000000 0.000000 0.000000
									CHANNELS 3 Zrotation Yrotation Xrotation
									JOINT RightHandIndex1
									{
										OFFSET -0.622530 -0.000000 -0.000000
										CHANNELS 3 Zrotation Yrotation Xrotation
										End Site
										{
											OFFSET 0.000000 0.000000 0.000000
										}
									}
								}
								JOINT RThumb
								{
									OFFSET 0.000000 0.000000 0.000000
									CHANNELS 3 Zrotation Yrotation Xrotation
									End Site
									{
										OFFSET 0.000000 0.000000 0.000000
									}
								}
							}
						}
					}
				}
			}
		}
	}
}
MOTION
Frames: 8
Frame Time: 0.008333
-10.236772 17.058971 -1.748519 24.316821 85.948893 29.608584 -10.074393 1.379488 1.978624 -15.844433 6.753563 -28.879269 -2.364593 0.109060 19.563614 1.904805 10.461885 -7.298963 0.233900 0.000000 -10.042200 10.517524 -4.103759 -1.413874 0.462102 -15.603250 -2.105063 -0.020930 -3.000512 40.362742 -0.095867 7.325278 16.820727 3.039999 0.000000 -81.082600 -3.861544 -0.142466 -2.415550 -1.270083 0.028756 -2.843256 -5.134465 -0.049062 2.697523 10.033496 -11.987020 -10.773969 -1.843244 -0.103585 -0.818148 0.000000 0.000000 0.000000 -5.366962 25.453509 1.370134 -78.888319 22.902220 7.139299 -3.547062 -27.193731 -0.017479 -7.263542 5.848949 -0.376975 -0.033577 -0.107434 -0.000000 0.000000 0.000000 0.000000 0.000000 0.000000 0.000000 11.731168 -6.343992 0.517573 48.884460 11.889931 8.720789 2.457927 43.312281 0.015022 3.296156 5.373358 0.156128 0.065399 -0.130166 0.000000 0.000000 0.000000 0.000000 0.000000 0.000000 0.000000 
-10.064172 17.055629 -1.741391 28.459718 86.114987 33.703334 -10.027800 1.414589 1.883184 -16.088071 6.991456 -28.598045 -2.358946 0.157270 20.389164 1.873459 10.321824 -7.410573 0.192100 -0.000000 -9.603800 10.727321 -4.060582 -1.478827 0.018502 -16.144511 -3.555213 -0.224131 -3.136256 43.148127 -0.323070 6.212810 18.177165 2.835599 -0.000000 -79.434500 -4.117617 -0.333225 -2.277224 -1.321064 -0.140459 -2.827018 -5.161282 -0.216999 2.657875 10.124381 -12.103897 -10.787004 -1.871211 -0.105504 -0.822638 0.000000 0.000000 0.000000 -5.021489 24.960707 1.395294 -78.555492 22.321688 7.322222 -3.567999 -27.206232 -0.017111 -7.148728 5.753733 -0.364651 -0.036727 -0.104437 -0.000000 0.000000 0.000000 0.000000 0.000000 0.000000 0.000000 11.901666 -6.533177 0.494952 49.673083 11.417469 8.540920 2.482647 43.259473 0.015121 3.269650 5.392829 0.155241 0.067000 -0.129492 0.000000 0.000000 0.000000 0.000000 0.000000 0.000000 0.000000 
-9.894681 17.051982 -1.734110 32.414001 86.281293 37.620398 -9.962839 1.457407 1.789636 -16.296742 7.218829 -28.302942 -2.358310 0.202521 21.166793 1.834664 10.111377 -7.575164 0.138600 -0.000000 -9.355600 10.933999 -3.983191 -1.551558 -0.305405 -16.622086 -5.033093 -0.406936 -3.262680 45.873122 -0.560286 4.664013 19.060288 2.351000 -0.000000 -77.259700 -4.317693 -0.516917 -2.121886 -1.362053 -0.306389 -2.806613 -5.189528 -0.381001 2.620351 10.208860 -12.247603 -10.808856 -1.898513 -0.107205 -0.829682 0.000000 0.000000 0.000000 -4.663626 24.452946 1.418230 -78.181872 21.674568 7.526508 -3.587502 -27.240944 -0.016674 -7.008069 5.650532 -0.350724 -0.040128 -0.101125 -0.000000 0.000000 0.000000 0.000000 0.000000 0.000000 0.000000 12.068217 -6.750467 0.475300 50.493564 10.945150 8.348700 2.508595 43.163610 0.015197 3.199037 5.422432 0.152555 0.069095 -0.128987 0.000000 0.000000 0.000000 0.000000 0.000000 0.000000 0.000000 
-9.728115 17.048373 -1.727010 35.992020 86.422180 41.173475 -9.888726 1.507480 1.701360 -16.463804 7.426052 -27.974863 -2.362648 0.242916 21.863086 1.794038 9.860715 -7.802772 0.073600 -0.000000 -9.290200 11.127897 -3.873207 -1.628798 -0.510244 -17.010304 -6.543860 -0.573131 -3.383584 48.521864 -0.800803 2.743980 19.412663 1.621600 0.000000 -74.652300 -4.464023 -0.684067 -1.957876 -1.394093 -0.459690 -2.786539 -5.221377 -0.532070 2.575052 10.280199 -12.370879 -10.826265 -1.927609 -0.109102 -0.835590 0.000000 0.000000 0.000000 -4.303027 23.917774 1.439876 -77.762600 20.992303 7.740696 -3.604127 -27.321995 -0.016145 -6.833525 5.527425 -0.334193 -0.043738 -0.097522 -0.000000 0.000000 0.000000 0.000000 0.000000 0.000000 0.000000 12.216339 -6.940200 0.458752 51.362794 10.395196 8.075416 2.535608 43.056954 0.015259 3.120957 5.444312 0.149270 0.071221 -0.128605 0.000000 0.000000 0.000000 0.000000 0.000000 0.000000 0.000000 
-9.564054 17.045137 -1.720640 39.028175 86.536486 44.197044 -9.819545 1.561451 1.621350 -16.575492 7.604981 -27.603679 -2.370594 0.277876 22.464060 1.755223 9.590917 -8.098865 -0.002200 -0.000000 -9.426599 11.295107 -3.737029 -1.709929 -0.590731 -17.307340 -8.078850 -0.723897 -3.500868 51.054126 -1.037481 0.566480 19.204387 0.728899 -0.000000 -71.756900 -4.555642 -0.835437 -1.790022 -1.416252 -0.601171 -2.765349 -5.255225 -0.670968 2.531354 10.344561 -12.502553 -10.847625 -1.956704 -0.110907 -0.842621 0.000000 0.000000 0.000000 -3.953414 23.391007 1.456653 -77.292292 20.257212 7.957926 -3.617899 -27.446910 -0.015532 -6.626516 5.384027 -0.315258 -0.047576 -0.093613 -0.000000 0.000000 0.000000 0.000000 0.000000 0.000000 0.000000 12.359435 -7.135138 0.445391 52.249832 9.832520 7.790807 2.564145 42.906649 0.015298 3.017111 5.473466 0.144885 0.073581 -0.128251 0.000000 0.000000 0.000000 0.000000 0.000000 0.000000 0.000000 
-9.402157 17.042747 -1.715248 41.387501 86.616061 46.557372 -9.764387 1.615491 1.549524 -16.632213 7.756867 -27.180698 -2.381322 0.305439 22.951810 1.722179 9.329388 -8.459254 -0.086600 -0.000000 -9.750800 11.428341 -3.582131 -1.789513 -0.552179 -17.498416 -9.639792 -0.860149 -3.615921 53.439545 -1.264604 -1.729105 18.446961 -0.217000 0.000000 -68.668300 -4.598930 -0.969773 -1.625701 -1.429529 -0.729239 -2.744306 -5.291027 -0.796243 2.490202 10.403443 -12.640109 -10.871618 -1.985814 -0.112644 -0.850368 0.000000 0.000000 0.000000 -3.624677 22.882886 1.467174 -76.765554 19.476194 8.171572 -3.628370 -27.622676 -0.014827 -6.382639 5.212624 -0.293620 -0.051641 -0.089414 -0.000000 0.000000 0.000000 0.000000 0.000000 0.000000 0.000000 12.499637 -7.332764 0.435024 53.149054 9.262462 7.499951 2.594918 42.703304 0.015320 2.894030 5.508285 0.139600 0.076107 -0.127832 0.000000 0.000000 0.000000 0.000000 0.000000 0.000000 0.000000 
-9.241956 17.041637 -1.710958 42.973826 86.659601 48.158887 -9.729898 1.666352 1.484747 -16.635637 7.888506 -26.702146 -2.393624 0.324284 23.317278 1.697569 9.098180 -8.873177 -0.177000 -0.000001 -10.241500 11.523117 -3.416661 -1.861517 -0.400653 -17.574267 -11.223652 -0.981012 -3.728237 55.642072 -1.475824 -3.990937 17.186782 -1.100200 0.000000 -65.460700 -4.598220 -1.088165 -1.471590 -1.434457 -0.844766 -2.724695 -5.328838 -0.908902 2.451673 10.457021 -12.772972 -10.894716 -2.015476 -0.114418 -0.857819 0.000000 0.000000 0.000000 -3.323693 22.400499 1.471397 -76.180476 18.658719 8.366211 -3.635650 -27.853389 -0.014028 -6.100313 5.009002 -0.269276 -0.055949 -0.084936 -0.000000 0.000000 0.000000 0.000000 0.000000 0.000000 0.000000 12.636936 -7.523054 0.426532 54.059646 8.679317 7.194836 2.628521 42.440284 0.015326 2.763677 5.545578 0.133914 0.078660 -0.127242 0.000000 0.000000 0.000000 0.000000 0.000000 0.000000 0.000000 
-9.083039 17.042229 -1.707806 43.750485 86.668948 48.964849 -9.719014 1.712035 1.425016 -16.589946 8.010288 -26.169468 -2.406403 0.333776 23.557759 1.682738 8.912547 -9.324909 -0.270800 0.000000 -10.860200 11.578759 -3.247732 -1.920430 -0.146036 -17.532311 -12.823817 -1.084182 -3.835821 57.626576 -1.663828 -6.072503 15.498846 -1.820400 0.000000 -62.158700 -4.558121 -1.193310 -1.332559 -1.431467 -0.950129 -2.706026 -5.367922 -1.011300 2.421056 10.509557 -12.916487 -10.920379 -2.044706 -0.116097 -0.865878 0.000000 0.000000 0.000000 -3.056785 21.960548 1.467623 -75.534080 17.801632 8.535166 -3.640018 -28.135991 -0.013142 -5.779154 4.773038 -0.242628 -0.060520 -0.080207 -0.000000 0.000000 0.000000 0.000000 0.000000 0.000000 0.000000 12.779049 -7.725061 0.419146 54.970342 8.118564 6.902994 2.666128 42.092669 0.015315 2.622630 5.587656 0.127726 0.081318 -0.126366 0.000000 0.000000 0.000000 0.000000 0.000000 0.000000 0.000000 
